<mxfile host="app.diagrams.net" modified="2023-05-06T14:22:23.506Z" agent="Mozilla/5.0 (X11; Linux x86_64) AppleWebKit/537.36 (KHTML, like Gecko) Chrome/112.0.0.0 Safari/537.36" etag="64Sop8ZSAfEvfCwMkkTF" version="21.2.9" type="device">
  <diagram name="Page-1" id="YsJ35T9tr8RX_78DpGfc">
    <mxGraphModel dx="1434" dy="1875" grid="1" gridSize="10" guides="1" tooltips="1" connect="1" arrows="1" fold="1" page="1" pageScale="1" pageWidth="850" pageHeight="1100" math="0" shadow="0">
      <root>
        <mxCell id="0" />
        <mxCell id="1" parent="0" />
        <mxCell id="FWKwlVDyR7kNy3vzUn8f-33" value="" style="ellipse;whiteSpace=wrap;html=1;shadow=0;labelBackgroundColor=none;fillStyle=auto;fontFamily=Helvetica;fontSize=12;gradientDirection=north;" parent="1" vertex="1">
          <mxGeometry x="17.5" y="990" width="170" height="90" as="geometry" />
        </mxCell>
        <mxCell id="FWKwlVDyR7kNy3vzUn8f-38" value="&lt;font style=&quot;font-size: 17px;&quot;&gt;1 -&amp;nbsp; instantiate, start, join&lt;br&gt;2 -&amp;nbsp; instantiate, shutdown&lt;br&gt;3 -&amp;nbsp; instantiate, initAssaultPartyID, shutdown&lt;br&gt;4 -&amp;nbsp; startOperations, appraiseSit, waitForThieves, assignAssaultPartyID, &lt;span style=&quot;white-space: pre;&quot;&gt; &lt;span style=&quot;white-space: pre;&quot;&gt;	&lt;/span&gt;&lt;/span&gt;assignRoomID,&lt;span style=&quot;&quot;&gt;&amp;nbsp;&lt;/span&gt;setAssignedRoomID, buildParty, prepareAssaultParty, sendAssaultParty, &lt;span style=&quot;white-space: pre;&quot;&gt; &lt;span style=&quot;white-space: pre;&quot;&gt;	&lt;/span&gt;&lt;/span&gt;setAssignedAPid, sumUpResults&lt;br&gt;5 -&amp;nbsp; takeARest, collectACanvas&lt;br&gt;6 -&amp;nbsp; addThievesToParty, resetAssaultParty&lt;br&gt;7 -&amp;nbsp; instantiate, open, close, writeObject, readObject&lt;br&gt;8 -&amp;nbsp; instantiate&lt;br&gt;9 - getMsgType, toString, getMasterState, getMasterTransition, &lt;span style=&quot;white-space: pre;&quot;&gt; &lt;span style=&quot;white-space: pre;&quot;&gt;	&lt;/span&gt;&lt;/span&gt;getOrdinaryID,&lt;span style=&quot;&quot;&gt;&amp;nbsp;&lt;/span&gt;getOrdinaryTState,&amp;nbsp;getAmINedeed, getAssautlPBuild, getOrdinaryAPID, &lt;span style=&quot;white-space: pre;&quot;&gt; &lt;span style=&quot;white-space: pre;&quot;&gt;	&lt;/span&gt;&lt;/span&gt;getnCanvasCollected, &lt;span style=&quot;&quot;&gt; &lt;/span&gt;getAssignAssaultPId, &lt;span style=&quot;&quot;&gt; &lt;/span&gt;getAssignRoomId&lt;br&gt;10 - getMsgType, toString, getMasterState, getOrdinaryAPID, getOrdinaryID, getOrdinaryTState, &lt;span style=&quot;white-space: pre;&quot;&gt; &lt;span style=&quot;white-space: pre;&quot;&gt;	&lt;/span&gt;&lt;/span&gt;getnCanvasCollected, getResetAPArray&lt;br&gt;11 - getMsgType, toString, getOrdinaryID, getOrdinaryAPID, getOrdinaryAPPos, getOrdinaryTState, &lt;span style=&quot;white-space: pre;&quot;&gt; &lt;span style=&quot;white-space: pre;&quot;&gt;	&lt;/span&gt;&lt;/span&gt;getAssignRoomId, getOrdinaryTAP_index&lt;br&gt;12 - getMsgType, toString&lt;br&gt;&lt;br&gt;&lt;br style=&quot;border-color: var(--border-color);&quot;&gt;&lt;/font&gt;" style="text;html=1;strokeColor=none;fillColor=none;align=left;verticalAlign=middle;whiteSpace=wrap;rounded=0;" parent="1" vertex="1">
          <mxGeometry x="15" y="-550" width="820" height="441" as="geometry" />
        </mxCell>
        <mxCell id="FWKwlVDyR7kNy3vzUn8f-86" style="edgeStyle=orthogonalEdgeStyle;rounded=0;orthogonalLoop=1;jettySize=auto;html=1;" parent="1" source="FWKwlVDyR7kNy3vzUn8f-78" target="FWKwlVDyR7kNy3vzUn8f-80" edge="1">
          <mxGeometry relative="1" as="geometry">
            <Array as="points">
              <mxPoint x="530" y="-1040" />
              <mxPoint x="530" y="-1040" />
            </Array>
          </mxGeometry>
        </mxCell>
        <mxCell id="FWKwlVDyR7kNy3vzUn8f-140" value="&lt;font style=&quot;font-size: 14px;&quot;&gt;1&lt;/font&gt;" style="edgeLabel;html=1;align=center;verticalAlign=middle;resizable=0;points=[];" parent="FWKwlVDyR7kNy3vzUn8f-86" vertex="1" connectable="0">
          <mxGeometry x="0.2231" y="1" relative="1" as="geometry">
            <mxPoint x="-21" y="-9" as="offset" />
          </mxGeometry>
        </mxCell>
        <mxCell id="FWKwlVDyR7kNy3vzUn8f-87" style="edgeStyle=orthogonalEdgeStyle;rounded=0;orthogonalLoop=1;jettySize=auto;html=1;entryX=0.5;entryY=0;entryDx=0;entryDy=0;" parent="1" source="FWKwlVDyR7kNy3vzUn8f-78" target="FWKwlVDyR7kNy3vzUn8f-84" edge="1">
          <mxGeometry relative="1" as="geometry">
            <Array as="points">
              <mxPoint x="110" y="-1040" />
            </Array>
          </mxGeometry>
        </mxCell>
        <mxCell id="FWKwlVDyR7kNy3vzUn8f-144" value="&lt;font style=&quot;font-size: 14px;&quot;&gt;2&lt;/font&gt;" style="edgeLabel;html=1;align=center;verticalAlign=middle;resizable=0;points=[];" parent="FWKwlVDyR7kNy3vzUn8f-87" vertex="1" connectable="0">
          <mxGeometry x="0.7757" y="5" relative="1" as="geometry">
            <mxPoint x="-12" as="offset" />
          </mxGeometry>
        </mxCell>
        <mxCell id="FWKwlVDyR7kNy3vzUn8f-113" style="edgeStyle=orthogonalEdgeStyle;rounded=0;orthogonalLoop=1;jettySize=auto;html=1;entryX=0.436;entryY=-0.006;entryDx=0;entryDy=0;entryPerimeter=0;" parent="1" source="FWKwlVDyR7kNy3vzUn8f-78" target="FWKwlVDyR7kNy3vzUn8f-83" edge="1">
          <mxGeometry relative="1" as="geometry">
            <Array as="points">
              <mxPoint x="270" y="-1026" />
            </Array>
          </mxGeometry>
        </mxCell>
        <mxCell id="FWKwlVDyR7kNy3vzUn8f-143" value="&lt;font style=&quot;font-size: 14px;&quot;&gt;3&lt;/font&gt;" style="edgeLabel;html=1;align=center;verticalAlign=middle;resizable=0;points=[];" parent="FWKwlVDyR7kNy3vzUn8f-113" vertex="1" connectable="0">
          <mxGeometry x="0.3978" y="-1" relative="1" as="geometry">
            <mxPoint as="offset" />
          </mxGeometry>
        </mxCell>
        <mxCell id="FWKwlVDyR7kNy3vzUn8f-114" style="edgeStyle=orthogonalEdgeStyle;rounded=0;orthogonalLoop=1;jettySize=auto;html=1;entryX=0.564;entryY=0.031;entryDx=0;entryDy=0;entryPerimeter=0;" parent="1" source="FWKwlVDyR7kNy3vzUn8f-78" target="FWKwlVDyR7kNy3vzUn8f-82" edge="1">
          <mxGeometry relative="1" as="geometry">
            <Array as="points">
              <mxPoint x="363" y="-950" />
              <mxPoint x="476" y="-950" />
            </Array>
          </mxGeometry>
        </mxCell>
        <mxCell id="FWKwlVDyR7kNy3vzUn8f-121" style="edgeStyle=orthogonalEdgeStyle;rounded=0;orthogonalLoop=1;jettySize=auto;html=1;entryX=0;entryY=0;entryDx=0;entryDy=0;" parent="1" source="FWKwlVDyR7kNy3vzUn8f-78" target="FWKwlVDyR7kNy3vzUn8f-81" edge="1">
          <mxGeometry relative="1" as="geometry">
            <Array as="points">
              <mxPoint x="613" y="-990" />
            </Array>
          </mxGeometry>
        </mxCell>
        <mxCell id="FWKwlVDyR7kNy3vzUn8f-141" value="&lt;font style=&quot;font-size: 14px;&quot;&gt;2&lt;/font&gt;" style="edgeLabel;html=1;align=center;verticalAlign=middle;resizable=0;points=[];" parent="FWKwlVDyR7kNy3vzUn8f-121" vertex="1" connectable="0">
          <mxGeometry x="0.1077" y="1" relative="1" as="geometry">
            <mxPoint x="-77" y="-10" as="offset" />
          </mxGeometry>
        </mxCell>
        <mxCell id="FWKwlVDyR7kNy3vzUn8f-78" value="" style="ellipse;whiteSpace=wrap;html=1;shadow=0;labelBackgroundColor=none;fillStyle=auto;fontFamily=Helvetica;fontSize=12;gradientDirection=north;" parent="1" vertex="1">
          <mxGeometry x="277.64" y="-1071.21" width="170" height="90" as="geometry" />
        </mxCell>
        <mxCell id="FWKwlVDyR7kNy3vzUn8f-79" value="ClientHeistToTheMuseum&lt;br&gt;Master" style="ellipse;whiteSpace=wrap;html=1;shadow=0;labelBackgroundColor=none;fillStyle=auto;strokeColor=default;fontFamily=Helvetica;fontSize=12;fontColor=default;fillColor=#969696;gradientColor=none;gradientDirection=north;" parent="1" vertex="1">
          <mxGeometry x="287.64" y="-1061.83" width="150" height="71.25" as="geometry" />
        </mxCell>
        <mxCell id="FWKwlVDyR7kNy3vzUn8f-116" style="edgeStyle=orthogonalEdgeStyle;rounded=0;orthogonalLoop=1;jettySize=auto;html=1;entryX=1;entryY=0;entryDx=0;entryDy=0;" parent="1" source="FWKwlVDyR7kNy3vzUn8f-80" target="FWKwlVDyR7kNy3vzUn8f-81" edge="1">
          <mxGeometry relative="1" as="geometry">
            <Array as="points">
              <mxPoint x="717" y="-990" />
              <mxPoint x="717" y="-990" />
            </Array>
          </mxGeometry>
        </mxCell>
        <mxCell id="FWKwlVDyR7kNy3vzUn8f-145" value="&lt;font style=&quot;font-size: 14px;&quot;&gt;4&lt;/font&gt;" style="edgeLabel;html=1;align=center;verticalAlign=middle;resizable=0;points=[];" parent="FWKwlVDyR7kNy3vzUn8f-116" vertex="1" connectable="0">
          <mxGeometry x="-0.269" y="-1" relative="1" as="geometry">
            <mxPoint as="offset" />
          </mxGeometry>
        </mxCell>
        <mxCell id="FWKwlVDyR7kNy3vzUn8f-117" style="edgeStyle=orthogonalEdgeStyle;rounded=0;orthogonalLoop=1;jettySize=auto;html=1;entryX=0.696;entryY=0.954;entryDx=0;entryDy=0;entryPerimeter=0;" parent="1" source="FWKwlVDyR7kNy3vzUn8f-80" target="FWKwlVDyR7kNy3vzUn8f-82" edge="1">
          <mxGeometry relative="1" as="geometry">
            <Array as="points">
              <mxPoint x="760" y="-1036" />
              <mxPoint x="760" y="-820" />
              <mxPoint x="496" y="-820" />
            </Array>
          </mxGeometry>
        </mxCell>
        <mxCell id="FWKwlVDyR7kNy3vzUn8f-148" value="&lt;font style=&quot;font-size: 14px;&quot;&gt;5&lt;/font&gt;" style="edgeLabel;html=1;align=center;verticalAlign=middle;resizable=0;points=[];" parent="FWKwlVDyR7kNy3vzUn8f-117" vertex="1" connectable="0">
          <mxGeometry x="-0.6967" relative="1" as="geometry">
            <mxPoint as="offset" />
          </mxGeometry>
        </mxCell>
        <mxCell id="FWKwlVDyR7kNy3vzUn8f-127" style="edgeStyle=orthogonalEdgeStyle;rounded=0;orthogonalLoop=1;jettySize=auto;html=1;entryX=0.628;entryY=0.994;entryDx=0;entryDy=0;entryPerimeter=0;" parent="1" source="FWKwlVDyR7kNy3vzUn8f-80" target="FWKwlVDyR7kNy3vzUn8f-83" edge="1">
          <mxGeometry relative="1" as="geometry">
            <Array as="points">
              <mxPoint x="790" y="-1050" />
              <mxPoint x="790" y="-800" />
              <mxPoint x="293" y="-800" />
            </Array>
          </mxGeometry>
        </mxCell>
        <mxCell id="FWKwlVDyR7kNy3vzUn8f-149" value="&lt;font style=&quot;font-size: 14px;&quot;&gt;6&lt;/font&gt;" style="edgeLabel;html=1;align=center;verticalAlign=middle;resizable=0;points=[];" parent="FWKwlVDyR7kNy3vzUn8f-127" vertex="1" connectable="0">
          <mxGeometry x="-0.6449" y="-2" relative="1" as="geometry">
            <mxPoint as="offset" />
          </mxGeometry>
        </mxCell>
        <mxCell id="FWKwlVDyR7kNy3vzUn8f-80" value="masterThief" style="ellipse;whiteSpace=wrap;html=1;shadow=0;labelBackgroundColor=none;fillStyle=auto;strokeColor=default;fontFamily=Helvetica;fontSize=12;fontColor=default;fillColor=#969696;gradientColor=none;gradientDirection=north;" parent="1" vertex="1">
          <mxGeometry x="602.5" y="-1071.21" width="135" height="70" as="geometry" />
        </mxCell>
        <mxCell id="FWKwlVDyR7kNy3vzUn8f-131" style="rounded=0;orthogonalLoop=1;jettySize=auto;html=1;entryX=1;entryY=0.5;entryDx=0;entryDy=0;" parent="1" source="FWKwlVDyR7kNy3vzUn8f-81" target="FWKwlVDyR7kNy3vzUn8f-98" edge="1">
          <mxGeometry relative="1" as="geometry" />
        </mxCell>
        <mxCell id="FWKwlVDyR7kNy3vzUn8f-155" value="&lt;font style=&quot;font-size: 14px;&quot;&gt;7&lt;/font&gt;" style="edgeLabel;html=1;align=center;verticalAlign=middle;resizable=0;points=[];" parent="FWKwlVDyR7kNy3vzUn8f-131" vertex="1" connectable="0">
          <mxGeometry x="0.6748" y="2" relative="1" as="geometry">
            <mxPoint as="offset" />
          </mxGeometry>
        </mxCell>
        <mxCell id="FWKwlVDyR7kNy3vzUn8f-134" style="edgeStyle=orthogonalEdgeStyle;rounded=0;orthogonalLoop=1;jettySize=auto;html=1;entryX=1;entryY=0.5;entryDx=0;entryDy=0;" parent="1" source="FWKwlVDyR7kNy3vzUn8f-81" target="FWKwlVDyR7kNy3vzUn8f-132" edge="1">
          <mxGeometry relative="1" as="geometry">
            <mxPoint x="530" y="-680" as="targetPoint" />
            <Array as="points">
              <mxPoint x="670" y="-650" />
            </Array>
          </mxGeometry>
        </mxCell>
        <mxCell id="FWKwlVDyR7kNy3vzUn8f-157" value="&lt;span style=&quot;font-size: 14px;&quot;&gt;9&lt;/span&gt;" style="edgeLabel;html=1;align=center;verticalAlign=middle;resizable=0;points=[];" parent="FWKwlVDyR7kNy3vzUn8f-134" vertex="1" connectable="0">
          <mxGeometry x="-0.1464" y="-3" relative="1" as="geometry">
            <mxPoint as="offset" />
          </mxGeometry>
        </mxCell>
        <mxCell id="FWKwlVDyR7kNy3vzUn8f-81" value="concentrationSiteStub" style="ellipse;whiteSpace=wrap;html=1;shadow=0;labelBackgroundColor=none;fillStyle=auto;fontFamily=Helvetica;fontSize=12;gradientDirection=north;" parent="1" vertex="1">
          <mxGeometry x="592.5" y="-922.1600000000001" width="145" height="65.63" as="geometry" />
        </mxCell>
        <mxCell id="FWKwlVDyR7kNy3vzUn8f-130" style="rounded=0;orthogonalLoop=1;jettySize=auto;html=1;entryX=1;entryY=0;entryDx=0;entryDy=0;" parent="1" source="FWKwlVDyR7kNy3vzUn8f-82" target="FWKwlVDyR7kNy3vzUn8f-98" edge="1">
          <mxGeometry relative="1" as="geometry" />
        </mxCell>
        <mxCell id="FWKwlVDyR7kNy3vzUn8f-154" value="&lt;font style=&quot;font-size: 14px;&quot;&gt;7&lt;/font&gt;" style="edgeLabel;html=1;align=center;verticalAlign=middle;resizable=0;points=[];" parent="FWKwlVDyR7kNy3vzUn8f-130" vertex="1" connectable="0">
          <mxGeometry x="0.4049" y="-1" relative="1" as="geometry">
            <mxPoint as="offset" />
          </mxGeometry>
        </mxCell>
        <mxCell id="FWKwlVDyR7kNy3vzUn8f-135" style="edgeStyle=orthogonalEdgeStyle;rounded=0;orthogonalLoop=1;jettySize=auto;html=1;entryX=0.688;entryY=0.05;entryDx=0;entryDy=0;entryPerimeter=0;" parent="1" source="FWKwlVDyR7kNy3vzUn8f-82" target="FWKwlVDyR7kNy3vzUn8f-132" edge="1">
          <mxGeometry relative="1" as="geometry" />
        </mxCell>
        <mxCell id="FWKwlVDyR7kNy3vzUn8f-158" value="&lt;font style=&quot;font-size: 14px;&quot;&gt;10&lt;/font&gt;" style="edgeLabel;html=1;align=center;verticalAlign=middle;resizable=0;points=[];" parent="FWKwlVDyR7kNy3vzUn8f-135" vertex="1" connectable="0">
          <mxGeometry x="0.2783" y="-3" relative="1" as="geometry">
            <mxPoint y="1" as="offset" />
          </mxGeometry>
        </mxCell>
        <mxCell id="FWKwlVDyR7kNy3vzUn8f-82" value="controlCollectionSiteStub" style="ellipse;whiteSpace=wrap;html=1;shadow=0;labelBackgroundColor=none;fillStyle=auto;fontFamily=Helvetica;fontSize=12;gradientDirection=north;" parent="1" vertex="1">
          <mxGeometry x="390" y="-922.1600000000001" width="152.36" height="69.37" as="geometry" />
        </mxCell>
        <mxCell id="FWKwlVDyR7kNy3vzUn8f-128" style="rounded=0;orthogonalLoop=1;jettySize=auto;html=1;entryX=0.583;entryY=0.017;entryDx=0;entryDy=0;entryPerimeter=0;exitX=0.045;exitY=0.666;exitDx=0;exitDy=0;exitPerimeter=0;" parent="1" source="FWKwlVDyR7kNy3vzUn8f-83" target="FWKwlVDyR7kNy3vzUn8f-98" edge="1">
          <mxGeometry relative="1" as="geometry" />
        </mxCell>
        <mxCell id="FWKwlVDyR7kNy3vzUn8f-151" value="&lt;font style=&quot;font-size: 14px;&quot;&gt;7&lt;/font&gt;" style="edgeLabel;html=1;align=center;verticalAlign=middle;resizable=0;points=[];" parent="FWKwlVDyR7kNy3vzUn8f-128" vertex="1" connectable="0">
          <mxGeometry x="-0.1952" y="2" relative="1" as="geometry">
            <mxPoint x="-39" y="32" as="offset" />
          </mxGeometry>
        </mxCell>
        <mxCell id="FWKwlVDyR7kNy3vzUn8f-136" style="edgeStyle=orthogonalEdgeStyle;rounded=0;orthogonalLoop=1;jettySize=auto;html=1;entryX=0.5;entryY=0;entryDx=0;entryDy=0;" parent="1" source="FWKwlVDyR7kNy3vzUn8f-83" target="FWKwlVDyR7kNy3vzUn8f-132" edge="1">
          <mxGeometry relative="1" as="geometry">
            <Array as="points">
              <mxPoint x="278" y="-730" />
              <mxPoint x="443" y="-730" />
            </Array>
          </mxGeometry>
        </mxCell>
        <mxCell id="FWKwlVDyR7kNy3vzUn8f-159" value="&lt;font style=&quot;font-size: 14px;&quot;&gt;11&lt;/font&gt;" style="edgeLabel;html=1;align=center;verticalAlign=middle;resizable=0;points=[];" parent="FWKwlVDyR7kNy3vzUn8f-136" vertex="1" connectable="0">
          <mxGeometry x="0.395" relative="1" as="geometry">
            <mxPoint as="offset" />
          </mxGeometry>
        </mxCell>
        <mxCell id="FWKwlVDyR7kNy3vzUn8f-83" value="assaultPartiesStub" style="ellipse;whiteSpace=wrap;html=1;shadow=0;labelBackgroundColor=none;fillStyle=auto;fontFamily=Helvetica;fontSize=12;gradientDirection=north;" parent="1" vertex="1">
          <mxGeometry x="217.64" y="-920.6099999999999" width="120" height="70" as="geometry" />
        </mxCell>
        <mxCell id="FWKwlVDyR7kNy3vzUn8f-105" style="edgeStyle=orthogonalEdgeStyle;rounded=0;orthogonalLoop=1;jettySize=auto;html=1;" parent="1" source="FWKwlVDyR7kNy3vzUn8f-84" target="FWKwlVDyR7kNy3vzUn8f-98" edge="1">
          <mxGeometry relative="1" as="geometry">
            <Array as="points">
              <mxPoint x="67.5" y="-800" />
              <mxPoint x="67.5" y="-800" />
            </Array>
          </mxGeometry>
        </mxCell>
        <mxCell id="FWKwlVDyR7kNy3vzUn8f-150" value="&lt;font style=&quot;font-size: 14px;&quot;&gt;7&lt;/font&gt;" style="edgeLabel;html=1;align=center;verticalAlign=middle;resizable=0;points=[];" parent="FWKwlVDyR7kNy3vzUn8f-105" vertex="1" connectable="0">
          <mxGeometry x="-0.1885" y="3" relative="1" as="geometry">
            <mxPoint x="-18" as="offset" />
          </mxGeometry>
        </mxCell>
        <mxCell id="FWKwlVDyR7kNy3vzUn8f-139" style="edgeStyle=orthogonalEdgeStyle;rounded=0;orthogonalLoop=1;jettySize=auto;html=1;entryX=0;entryY=0.5;entryDx=0;entryDy=0;" parent="1" source="FWKwlVDyR7kNy3vzUn8f-84" target="FWKwlVDyR7kNy3vzUn8f-132" edge="1">
          <mxGeometry relative="1" as="geometry">
            <Array as="points">
              <mxPoint x="180" y="-880" />
              <mxPoint x="180" y="-650" />
            </Array>
          </mxGeometry>
        </mxCell>
        <mxCell id="FWKwlVDyR7kNy3vzUn8f-160" value="&lt;font style=&quot;font-size: 14px;&quot;&gt;12&lt;/font&gt;" style="edgeLabel;html=1;align=center;verticalAlign=middle;resizable=0;points=[];" parent="FWKwlVDyR7kNy3vzUn8f-139" vertex="1" connectable="0">
          <mxGeometry x="0.4256" y="3" relative="1" as="geometry">
            <mxPoint as="offset" />
          </mxGeometry>
        </mxCell>
        <mxCell id="FWKwlVDyR7kNy3vzUn8f-84" value="genReposStub" style="ellipse;whiteSpace=wrap;html=1;shadow=0;labelBackgroundColor=none;fillStyle=auto;fontFamily=Helvetica;fontSize=12;gradientDirection=north;" parent="1" vertex="1">
          <mxGeometry x="52.5" y="-926.5300000000001" width="115" height="70" as="geometry" />
        </mxCell>
        <mxCell id="FWKwlVDyR7kNy3vzUn8f-138" style="edgeStyle=orthogonalEdgeStyle;rounded=0;orthogonalLoop=1;jettySize=auto;html=1;entryX=0.5;entryY=1;entryDx=0;entryDy=0;" parent="1" source="FWKwlVDyR7kNy3vzUn8f-98" target="FWKwlVDyR7kNy3vzUn8f-132" edge="1">
          <mxGeometry relative="1" as="geometry">
            <Array as="points">
              <mxPoint x="70" y="-600" />
              <mxPoint x="443" y="-600" />
            </Array>
          </mxGeometry>
        </mxCell>
        <mxCell id="FWKwlVDyR7kNy3vzUn8f-156" value="&lt;font style=&quot;font-size: 14px;&quot;&gt;8&lt;/font&gt;" style="edgeLabel;html=1;align=center;verticalAlign=middle;resizable=0;points=[];" parent="FWKwlVDyR7kNy3vzUn8f-138" vertex="1" connectable="0">
          <mxGeometry x="0.2271" y="4" relative="1" as="geometry">
            <mxPoint x="114" y="14" as="offset" />
          </mxGeometry>
        </mxCell>
        <mxCell id="FWKwlVDyR7kNy3vzUn8f-98" value="com" style="ellipse;whiteSpace=wrap;html=1;shadow=0;labelBackgroundColor=none;fillStyle=auto;fontFamily=Helvetica;fontSize=12;gradientDirection=north;" parent="1" vertex="1">
          <mxGeometry x="15" y="-750" width="120" height="60" as="geometry" />
        </mxCell>
        <mxCell id="FWKwlVDyR7kNy3vzUn8f-132" value="outMessage,&amp;nbsp;&lt;br&gt;inMessage" style="ellipse;whiteSpace=wrap;html=1;shadow=0;labelBackgroundColor=none;fillStyle=auto;fontFamily=Helvetica;fontSize=12;gradientDirection=north;" parent="1" vertex="1">
          <mxGeometry x="380" y="-680" width="125" height="60" as="geometry" />
        </mxCell>
        <mxCell id="FWKwlVDyR7kNy3vzUn8f-142" value="&lt;font style=&quot;font-size: 14px;&quot;&gt;2&lt;/font&gt;" style="edgeLabel;html=1;align=center;verticalAlign=middle;resizable=0;points=[];" parent="1" vertex="1" connectable="0">
          <mxGeometry x="500.10678104346334" y="-991" as="geometry">
            <mxPoint x="-61" y="30" as="offset" />
          </mxGeometry>
        </mxCell>
      </root>
    </mxGraphModel>
  </diagram>
</mxfile>
